<svg xmlns="http://www.w3.org/2000/svg" xmlns:xlink="http://www.w3.org/1999/xlink" width="3023.623" height="3023.623"><defs><linearGradient id="b" x1="0" x2="0" y1="0" y2="1" gradientTransform="matrix(167.83854 -152.1867 668.22205 736.94623 348.766 1215.095)" gradientUnits="userSpaceOnUse"><stop offset="0" stop-color="#D2D3D3"/><stop offset=".55" stop-color="#D2D3D3"/><stop offset=".55" stop-color="#545454"/><stop offset="1" stop-color="#545454"/></linearGradient><linearGradient id="c" x1="0" x2="0" y1="0" y2="1" gradientTransform="matrix(600.70352 129.8767 -154.91648 716.51712 2044.502 339.73)" gradientUnits="userSpaceOnUse"><stop offset="0" stop-color="#545454"/><stop offset=".5" stop-color="#545454"/><stop offset=".5" stop-color="#BD9354"/><stop offset="1" stop-color="#BD9354"/></linearGradient><linearGradient id="d" x1="0" x2="0" y1="0" y2="1" gradientTransform="matrix(594.9993 299.25348 -319.1452 634.5496 2128.866 1790.957)" gradientUnits="userSpaceOnUse"><stop offset="0" stop-color="#BD9354"/><stop offset=".5" stop-color="#BD9354"/><stop offset=".5" stop-color="#D2D3D3"/><stop offset="1" stop-color="#D2D3D3"/></linearGradient><clipPath id="a"><path d="M0 0h3024v3024H0z"/></clipPath><g id="e" clip-path="url(#a)"><path fill="#BD9354" d="m191.414 1258.371 367.348-333.09c130.422-118.258 332.324-108.383 450.582 22.04l333.09 367.343c118.261 130.426 108.386 332.324-22.04 450.586l-367.343 333.09c-130.426 118.262-332.324 108.387-450.586-22.04l-333.086-367.343c-118.262-130.426-108.387-332.324 22.035-450.586m0 0"/><path fill="url(#b)" d="M570.332 1274.328q-30.867 27.984-72.34 27.8c-27.648-.116-50.512-10.148-68.586-30.085q-27.116-29.9-23.254-71.195 3.869-41.291 34.73-69.282 30.87-27.985 72.098-27.582c27.489.27 50.27 10.368 68.348 30.305 18.078 19.934 25.91 43.594 23.488 70.977q-3.622 41.073-34.484 69.062m361.547 316.348c16.617 18.328 43.86 47.238 81.715 86.73q56.793 59.239 81.718 86.73c16.91 18.645 24.567 39.688 22.954 63.114q-2.41 35.14-31.344 61.379c-19.293 17.496-40.672 25.898-64.149 25.207q-35.209-1.03-60.574-29-24.924-27.493-81.719-86.727c-37.855-39.496-65.097-68.406-81.714-86.734-25.95-28.617-56.844-65.922-92.7-111.922q-53.776-69-92.699-111.926c-16.906-18.648-24.562-39.687-22.953-63.113s12.055-43.89 31.348-61.383c19.293-17.492 40.672-25.898 64.148-25.207q35.21 1.032 60.57 29.004c25.95 28.617 56.848 65.922 92.7 111.926 35.855 46 66.75 83.305 92.699 111.922M-50.2 909.82"/><path fill="#D2D3D3" d="m2145.184 149.387 484.675 104.789c172.082 37.203 281.582 207.117 244.38 379.199l-104.794 484.676c-37.203 172.078-207.117 281.582-379.199 244.375l-484.672-104.79c-172.082-37.206-281.582-207.12-244.379-379.198l104.793-484.676c37.203-172.082 207.117-281.582 379.196-244.375m0 0"/><path fill="url(#c)" d="M2224.3 1128.613q-139.992-30.265-217.613-130.308-81.738-105.598-52.027-243.047 27.382-126.627 146.27-242.137 135.11-131.981 270.015-102.812c44.121 9.539 93.094 32.558 146.926 69.066q98.045 67.16 85.664 124.43-6.739 31.178-33.605 50.683-28.549 21.14-64.82 13.297c-18.239-3.945-38.063-18.558-59.465-43.828q-32.1-37.916-109.098-54.562-48.996-10.594-127.043 73.109-74.811 81.074-89.395 148.527-14.442 66.816 25.66 115.45c25.317 30.785 63.008 51.59 113.063 62.414 28.422 6.144 65.55 2.847 111.375-9.891q68.742-19.106 85.29-15.531 34.358 7.43 53.495 37.543c12.754 20.078 16.84 40.718 12.254 61.933q-10.732 49.635-129.64 75.88c-70.813 15.327-126.579 18.593-167.305 9.784m-38.433-1553.625"/><path fill="#545454" d="m1649.836 2234.484 222.805-443c79.105-157.28 271.023-220.754 428.308-141.648l443 222.805c157.281 79.105 220.754 271.023 141.649 428.308l-222.805 443c-79.106 157.281-271.023 220.754-428.309 141.649l-443-222.805c-157.28-79.106-220.754-271.023-141.648-428.309m0 0"/><path fill="url(#d)" d="M2134.848 2589.027c-92.676-46.609-157.36-106.836-194.067-180.683-40.57-81.617-38.523-166.824 6.133-255.617q74.01-147.154 202.559-210.032 142.825-69.54 288.816 3.883 101.205 50.902 151.707 117.113 66.176 87.21 20.543 177.946-32.178 63.98-128.582 77.433-43.982 6.3-164.21.489l-239.595-11.922q12.709 44.285 44.653 79.3t83.125 60.758q77.94 39.198 148.117 34.414c41.742-2.812 72.3.653 91.691 10.407q60.49 30.419 30.942 89.164-33.344 66.304-151.54 59.332-98.98-6.059-190.292-51.985m232.648-501.695q-54.088-27.206-110.613-10.45-56.526 16.755-116.063 77.173 80.06 4.558 159.242 9.402c64.239 2.676 116.942 1.727 158.102-2.832q-27.85-41.7-90.668-73.293m88.574-1015.05"/></g></defs><use xlink:href="#e"/></svg>