<svg xmlns="http://www.w3.org/2000/svg" xmlns:xlink="http://www.w3.org/1999/xlink" width="3023.623" height="3023.623"><defs><clipPath id="a"><path d="M0 0h3024v3024H0z"/></clipPath><g id="b" clip-path="url(#a)"><path fill="#BD9354" d="m191.414 1258.371 367.348-333.09c130.422-118.258 332.324-108.383 450.582 22.039l333.09 367.344c118.261 130.426 108.386 332.324-22.039 450.586l-367.344 333.09c-130.426 118.262-332.324 108.387-450.586-22.039l-333.086-367.344c-118.262-130.426-108.387-332.324 22.035-450.586m0 0"/><path fill="#D2D3D3" d="M570.332 1274.328q-30.867 27.983-72.34 27.801c-27.648-.117-50.512-10.149-68.586-30.086q-27.116-29.9-23.254-71.195 3.868-41.291 34.731-69.282c20.578-18.656 44.613-27.851 72.097-27.582 27.489.27 50.27 10.368 68.348 30.305 18.078 19.934 25.91 43.594 23.488 70.977q-3.622 41.073-34.484 69.062m361.547 316.348c16.617 18.328 43.859 47.238 81.715 86.73q56.793 59.238 81.719 86.731c16.91 18.644 24.566 39.687 22.953 63.113q-2.41 35.14-31.344 61.379c-19.293 17.496-40.672 25.898-64.149 25.207q-35.208-1.03-60.574-29-24.924-27.493-81.719-86.727c-37.855-39.496-65.097-68.406-81.714-86.734-25.95-28.617-56.844-65.922-92.7-111.922q-53.776-69-92.699-111.926c-16.906-18.648-24.562-39.687-22.953-63.113s12.055-43.891 31.348-61.383 40.672-25.898 64.148-25.207q35.21 1.032 60.57 29.004c25.95 28.617 56.848 65.922 92.7 111.926 35.855 46 66.75 83.305 92.699 111.922M2145.184 149.387l484.675 104.789c172.082 37.203 281.582 207.117 244.379 379.199l-104.793 484.676c-37.203 172.078-207.117 281.582-379.199 244.375l-484.672-104.789c-172.082-37.207-281.582-207.121-244.379-379.199l104.793-484.676c37.203-172.082 207.117-281.582 379.196-244.375m0 0"/><path fill="#545454" d="M2224.301 1128.613q-139.993-30.264-217.613-130.308-81.74-105.598-52.028-243.047 27.382-126.626 146.27-242.137 135.11-131.981 270.015-102.812c44.121 9.539 93.094 32.558 146.926 69.066q98.045 67.16 85.664 124.43-6.739 31.177-33.605 50.683-28.55 21.14-64.821 13.297c-18.238-3.945-38.062-18.558-59.464-43.828q-32.1-37.916-109.098-54.562-48.996-10.593-127.043 73.109-74.812 81.076-89.395 148.527-14.443 66.816 25.661 115.449c25.316 30.786 63.007 51.59 113.062 62.415 28.422 6.144 65.551 2.847 111.375-9.891q68.742-19.106 85.289-15.531 34.359 7.43 53.496 37.543c12.754 20.078 16.84 40.718 12.254 61.933q-10.732 49.635-129.641 75.879c-70.812 15.328-126.578 18.594-167.304 9.785m-574.465 1105.871 222.805-443c79.105-157.281 271.023-220.754 428.308-141.648l443 222.805c157.281 79.105 220.754 271.023 141.649 428.308l-222.805 443c-79.105 157.281-271.023 220.754-428.309 141.649l-443-222.805c-157.281-79.105-220.754-271.023-141.648-428.309m0 0"/><path fill="#BD9354" d="M2134.848 2589.027c-92.676-46.609-157.36-106.836-194.067-180.683-40.57-81.617-38.523-166.824 6.133-255.617q74.01-147.154 202.559-210.032 142.825-69.54 288.816 3.883 101.204 50.902 151.707 117.113 66.176 87.21 20.543 177.946-32.178 63.98-128.582 77.433-43.982 6.3-164.211.489l-239.594-11.922q12.709 44.285 44.653 79.301 31.945 35.013 83.125 60.757 77.94 39.198 148.117 34.414c41.742-2.812 72.301.653 91.691 10.407q60.491 30.42 30.942 89.164-33.345 66.304-151.539 59.332-98.982-6.058-190.293-51.985m232.648-501.695q-54.088-27.206-110.613-10.449-56.526 16.753-116.063 77.172a37674 37674 0 0 1 159.243 9.402c64.238 2.676 116.941 1.727 158.101-2.832q-27.85-41.7-90.668-73.293m88.574-1015.051"/></g></defs><use xlink:href="#b"/></svg>