<?xml version="1.0" encoding="UTF-8" standalone="no"?><!-- Generator: Gravit.io --><svg xmlns="http://www.w3.org/2000/svg" xmlns:xlink="http://www.w3.org/1999/xlink" style="isolation:isolate" viewBox="0 0 2267.716535 2267.716535" width="2267.716535pt" height="2267.716535pt"><path d="M 143.560999 943.778781 L 419.070311 693.962192 C 516.887935 605.266587 668.313015 612.672509 757.00862 710.490133 L 1006.82521 985.999445 C 1095.520815 1083.817069 1088.114893 1235.242149 990.297269 1323.937754 L 714.787957 1573.754344 C 616.970333 1662.449949 465.545252 1655.044027 376.849648 1557.226403 L 127.033058 1281.71709 C 38.337453 1183.899467 45.743375 1032.474386 143.560999 943.778781 Z" style="stroke:none;fill:#BD9354;stroke-miterlimit:10;"/><path d="M 1608.88886 112.038546 L 1972.395219 190.631402 C 2101.455568 218.535238 2183.581825 345.970243 2155.67799 475.030593 L 2077.085133 838.536951 C 2049.181298 967.5973 1921.746292 1049.723557 1792.685943 1021.819722 L 1429.179585 943.226865 C 1300.119235 915.32303 1217.992978 787.888025 1245.896814 658.827675 L 1324.48967 295.321317 C 1352.393505 166.260967 1479.828511 84.134711 1608.88886 112.038546 Z" style="stroke:none;fill:#D2D3D3;stroke-miterlimit:10;"/><path d="M 1237.376595 1675.86325 L 1404.480807 1343.613507 C 1463.80997 1225.650596 1607.748642 1178.047432 1725.711553 1237.376595 L 2057.961296 1404.480807 C 2175.924207 1463.80997 2223.527371 1607.748642 2164.198208 1725.711553 L 1997.093996 2057.961296 C 1937.764833 2175.924207 1793.826161 2223.527371 1675.86325 2164.198208 L 1343.613507 1997.093996 C 1225.650596 1937.764833 1178.047432 1793.826161 1237.376595 1675.86325 Z" style="stroke:none;fill:#545454;stroke-miterlimit:10;"/></svg>